<?xml version="1.0" encoding="UTF-8" standalone="no"?>
<!-- Created with Inkscape (http://www.inkscape.org/) -->

<svg
   xmlns:dc="http://purl.org/dc/elements/1.1/"
   xmlns:cc="http://creativecommons.org/ns#"
   xmlns:rdf="http://www.w3.org/1999/02/22-rdf-syntax-ns#"
   xmlns:svg="http://www.w3.org/2000/svg"
   xmlns="http://www.w3.org/2000/svg"
   xmlns:sodipodi="http://sodipodi.sourceforge.net/DTD/sodipodi-0.dtd"
   xmlns:inkscape="http://www.inkscape.org/namespaces/inkscape"
   width="37.696819mm"
   height="63.221874mm"
   viewBox="0 0 37.696819 63.221874"
   version="1.1"
   id="svg4668"
   inkscape:version="0.92.2 (5c3e80d, 2017-08-06)"
   sodipodi:docname="logo.svg">
  <defs
     id="defs4662" />
  <sodipodi:namedview
     id="base"
     pagecolor="#ffffff"
     bordercolor="#666666"
     borderopacity="1.0"
     inkscape:pageopacity="0.0"
     inkscape:pageshadow="2"
     inkscape:zoom="1.979899"
     inkscape:cx="-82.39735"
     inkscape:cy="117.87064"
     inkscape:document-units="mm"
     inkscape:current-layer="layer1"
     showgrid="false"
     fit-margin-top="0"
     fit-margin-left="0"
     fit-margin-right="0"
     fit-margin-bottom="0"
     inkscape:window-width="2560"
     inkscape:window-height="1338"
     inkscape:window-x="0"
     inkscape:window-y="55"
     inkscape:window-maximized="1" />
  <metadata
     id="metadata4665">
    <rdf:RDF>
      <cc:Work
         rdf:about="">
        <dc:format>image/svg+xml</dc:format>
        <dc:type
           rdf:resource="http://purl.org/dc/dcmitype/StillImage" />
        <dc:title></dc:title>
      </cc:Work>
    </rdf:RDF>
  </metadata>
  <g
     inkscape:label="Layer 1"
     inkscape:groupmode="layer"
     id="layer1"
     transform="translate(-152.39515,-221.16585)">
    <path
       style="fill:#000000;fill-opacity:1;stroke:none;stroke-width:0.05482922px;stroke-linecap:butt;stroke-linejoin:miter;stroke-opacity:1"
       d="m 170.16367,226.63493 c -4.67439,-0.0137 -9.48012,1.32464 -14.4855,4.71941 0.005,0.0157 0.0111,0.0328 0.0161,0.0487 h -0.0186 c 0,0 -6.50794,7.84446 -1.19122,12.80294 1.46983,1.37079 4.61243,1.8222 7.9241,2.48201 0.32595,0.81645 0.59678,1.5638 0.7864,2.20919 1.12933,3.84364 0.40582,7.41042 0.40582,7.41042 -0.67585,3.17744 -2.32129,12.13475 2.11429,26.95617 0.22741,0.75991 1.80252,0.0824 2.05548,0.88124 1.27489,-7.73538 3.41637,-16.86926 3.56215,-27.83741 h 0.002 c 0.0905,6.81125 0.14113,16.68665 1.08525,22.16355 0.28306,1.64205 0.25001,1.45031 0.52977,2.98926 0.11011,1.33697 0.26417,1.17398 -0.31869,2.6846 l 7.68756,0.0809 c 0,0 -0.57344,-3.9101 -3.56049,-3.88433 -0.26838,0.002 -0.52167,0.0354 -0.76074,0.0928 4.03639,-13.95629 3.72516,-21.04316 3.06927,-24.12679 0,0 -0.70006,-2.04224 0.18952,-6.36181 0.15428,-0.74913 0.47953,-1.80181 0.90755,-3.02325 3.24801,-0.56997 6.34363,-1.46215 7.81922,-2.80972 5.433,-4.96164 -1.34622,-12.70978 -1.34622,-12.70978 h -0.0246 c 0.001,-0.003 0.022,-0.0487 0.022,-0.0487 -5.37927,-2.71694 -10.82947,-4.70287 -16.47098,-4.71941 z m -2.39307,57.51006 c 0,0 -3.3249,-4.10131 -5.09812,-3.72246 -1.77321,0.37884 -2.26583,3.9652 -2.26583,3.9652 z"
       id="path4504"
       inkscape:connector-curvature="0"
       sodipodi:nodetypes="scccscscscccsccccccscscccscscc" />
    <path
       style="fill:#000000;fill-opacity:1;stroke:none;stroke-width:0.50891513;stroke-miterlimit:4;stroke-dasharray:none;stroke-opacity:1"
       d="m 174.85414,225.57327 c 0,2.43337 -1.59222,4.40601 -3.55632,4.40601 -1.9641,0 -3.55632,-1.97264 -3.55632,-4.40601 0,-2.43337 -0.0957,-4.46879 3.55632,-4.406 3.82332,0.0657 3.55632,1.97263 3.55632,4.406 z"
       id="path4523"
       inkscape:connector-curvature="0"
       sodipodi:nodetypes="sssss" />
    <path
       style="fill:#ffffff;fill-opacity:1;stroke:none;stroke-width:0.04194346px;stroke-linecap:butt;stroke-linejoin:miter;stroke-opacity:1"
       d="m 174.76336,224.06359 c -1.73522,0.005 -5.88829,-0.17045 -5.88829,-0.17045 -0.041,0.0995 0.0163,0.14808 0.29096,0.17958 0,0 0.15301,0.01 0.57661,0.0586 0,0 -0.12648,1.23091 1.22586,1.23798 1.35235,0.007 1.34617,-1.10782 1.62634,-1.09557 0.29962,0.0131 -0.1358,1.09565 1.11161,1.09606 1.2474,4.3e-4 1.05691,-1.30624 1.05691,-1.30624 z"
       id="path4627"
       inkscape:connector-curvature="0"
       sodipodi:nodetypes="cssczszcc" />
    <path
       style="fill:#ffffff;fill-opacity:1;stroke:#ffffff;stroke-width:0.03762759;stroke-miterlimit:4;stroke-dasharray:none;stroke-opacity:1"
       d="m 185.11638,234.18263 c -1.888,-0.19778 -3.86473,1.14215 -4.23687,3.03161 0.0904,1.19305 3.00316,-0.56986 1.34504,0.7245 -1.5774,1.0648 -3.55991,0.32634 -5.02663,-0.56454 -2.14944,-0.92516 -4.47961,-0.12992 -6.67187,0.17165 -2.05181,0.43081 -4.15755,0.79326 -6.24978,0.42144 -1.38656,-0.18148 -2.78125,-0.61952 -3.76888,-1.67449 -0.97104,-1.03725 -2.25163,-1.95546 -3.7545,-1.82949 -1.6104,0.052 -3.11443,1.13546 -3.73973,2.60975 0.46651,-0.52526 0.38119,-0.35565 0.79617,0.0685 0.97734,0.89372 2.03082,2.26297 3.53648,1.68586 1.20852,-0.47001 2.66651,0.53573 1.21189,1.49204 -0.78367,1.35419 -3.49344,0.75888 -3.36358,2.51336 -0.0261,1.14688 1.71002,1.30504 1.5375,0.17758 4.34217,-1.34897 4.33323,-3.70014 13.29675,-3.69156 1.0289,0.18065 2.86754,-0.94513 3.88233,-1.07359 1.35162,-0.36961 1.85514,-0.43913 3.20844,0.0386 0.24713,0.14143 3.3865,0.13317 3.20876,0.17064 -3.1035,0.65427 -4.8682,2.41321 -5.48664,2.96586 -0.51279,1.19961 3.17657,-0.22605 3.84284,0.01 1.45335,-0.22277 2.98043,-0.23712 4.30694,-0.94384 0.97596,-0.59042 3.52127,-0.44616 4.41968,0.0341 1.50233,0.45923 0.78208,-1.79821 0.0929,-2.3691 0.0352,-0.69161 0.68882,-1.47829 1.55653,-1.43897 0.51383,-0.40068 0.0764,-0.99444 -0.0886,-1.20162 -1.01106,-0.98906 -2.48419,-1.31088 -3.85519,-1.32837 z"
       id="path4636"
       inkscape:connector-curvature="0"
       sodipodi:nodetypes="ccccccsccccccccccsccccccccc" />
  </g>
</svg>
